<?xml version="1.0" standalone="no"?>
<!DOCTYPE svg PUBLIC "-//W3C//DTD SVG 20010904//EN"
 "http://www.w3.org/TR/2001/REC-SVG-20010904/DTD/svg10.dtd">
<svg version="1.0" xmlns="http://www.w3.org/2000/svg"
 width="1080.000000pt" height="1080.000000pt" viewBox="0 0 1080.000000 1080.000000"
 preserveAspectRatio="xMidYMid meet">
<metadata>
Created by potrace 1.14, written by Peter Selinger 2001-2017
</metadata>
<g transform="translate(0.000000,1080.000000) scale(0.100000,-0.100000)"
fill="#000000" stroke="none">
<path d="M5626 9862 c-39 -59 -126 -192 -194 -297 -69 -104 -154 -235 -190
-290 -107 -163 -351 -537 -477 -730 -65 -99 -147 -225 -183 -280 -36 -55 -102
-156 -147 -225 -45 -69 -109 -168 -143 -220 -34 -52 -67 -102 -72 -110 -6 -8
-56 -85 -112 -170 -55 -85 -138 -211 -183 -280 -45 -69 -103 -159 -130 -200
-27 -41 -112 -172 -191 -291 -78 -119 -147 -226 -154 -239 -7 -13 -17 -29 -22
-34 -9 -11 -102 -152 -247 -376 -41 -63 -83 -128 -94 -143 -18 -27 -12 -25 94
30 63 32 116 60 119 63 3 3 34 20 70 38 164 85 356 185 365 192 6 4 78 42 160
85 83 43 173 90 200 105 51 28 166 89 355 188 58 30 137 71 175 92 119 64 215
115 340 180 66 35 149 79 185 98 36 19 112 60 170 90 58 30 134 70 170 89 36
19 97 52 137 73 l71 38 69 -37 c37 -21 136 -73 218 -116 83 -43 155 -81 160
-85 6 -4 78 -42 160 -85 83 -43 173 -90 200 -105 28 -15 100 -53 160 -85 61
-32 146 -77 190 -100 44 -23 125 -66 180 -95 55 -29 136 -72 180 -95 345 -183
393 -208 505 -267 156 -82 415 -219 538 -284 57 -31 82 -33 47 -4 -8 7 -15 19
-15 26 0 8 -4 14 -9 14 -5 0 -16 15 -25 33 -9 17 -25 43 -35 57 -10 14 -61 90
-112 170 -177 273 -238 365 -246 375 -5 6 -12 17 -16 25 -3 8 -80 126 -169
263 -281 427 -343 522 -712 1087 -186 284 -294 449 -422 645 -69 105 -155 237
-192 295 -36 58 -69 107 -72 110 -3 3 -21 30 -40 60 -19 30 -38 57 -42 58 -5
2 -8 8 -8 12 0 5 -64 107 -143 227 -79 120 -190 289 -246 376 -57 86 -104 157
-105 157 0 0 -32 -49 -70 -108z"/>
<path d="M4355 6356 c-66 -34 -192 -100 -280 -145 -279 -145 -286 -150 -270
-200 5 -15 173 -130 218 -150 5 -2 61 -36 126 -75 64 -40 123 -75 131 -79 8
-4 125 -74 260 -157 135 -82 272 -165 305 -185 33 -19 177 -106 320 -193 143
-86 364 -220 490 -296 647 -392 1051 -636 1148 -694 59 -35 110 -69 114 -75 9
-15 10 -25 17 -252 4 -110 9 -240 11 -290 8 -193 17 -487 19 -625 l1 -145 -90
-60 c-49 -33 -180 -118 -290 -190 -199 -128 -287 -185 -565 -367 -264 -172
-307 -198 -325 -198 -10 0 -93 43 -184 97 -91 53 -182 105 -201 116 -19 11
-134 77 -255 147 -121 70 -236 137 -255 148 -19 10 -73 42 -120 69 -47 27 -96
56 -110 64 -14 8 -35 23 -47 33 l-23 19 0 712 c0 665 1 713 18 728 15 13 236
160 694 460 64 42 120 82 124 89 22 35 9 67 -38 96 -18 10 -123 72 -233 137
-110 65 -245 145 -300 178 -55 33 -110 60 -122 60 -17 0 -102 -51 -123 -73 -3
-3 -84 -63 -180 -133 -531 -385 -647 -470 -663 -489 -14 -17 -16 -34 -12 -102
2 -44 7 -157 10 -251 3 -93 7 -210 10 -260 5 -107 14 -359 20 -540 2 -71 7
-184 10 -250 3 -66 7 -183 10 -260 11 -317 16 -389 27 -402 6 -7 113 -82 237
-165 124 -83 294 -197 376 -253 83 -56 357 -240 610 -410 253 -170 522 -351
598 -402 143 -97 168 -106 213 -76 14 9 38 24 53 32 15 9 103 63 194 121 92
58 175 110 185 115 22 12 270 167 337 210 28 18 124 78 215 135 91 56 181 112
200 125 48 31 627 392 691 431 28 17 56 39 61 49 7 11 10 399 10 1122 0 922
-2 1107 -13 1118 -12 11 -275 169 -379 228 -19 10 -39 23 -45 27 -5 4 -30 19
-55 32 -25 14 -125 73 -223 132 -99 58 -181 106 -184 106 -4 0 -21 11 -39 25
-18 14 -35 25 -39 25 -3 0 -49 26 -103 58 -53 33 -191 114 -307 182 -115 67
-226 133 -245 145 -19 13 -51 32 -70 42 -19 10 -46 26 -60 35 -22 14 -301 178
-1070 631 -140 83 -284 168 -319 189 -36 21 -74 38 -85 38 -12 -1 -75 -29
-141 -64z"/>
<path d="M6715 6402 c-16 -10 -66 -38 -110 -61 -44 -24 -139 -77 -212 -117
-72 -41 -134 -74 -136 -74 -2 0 -54 -28 -114 -62 -60 -35 -130 -74 -157 -88
-84 -44 -82 -89 7 -147 341 -223 585 -375 602 -375 12 0 91 43 176 97 85 54
181 115 214 136 349 221 480 306 488 320 5 9 7 28 3 43 -6 23 -24 36 -114 78
-59 27 -138 65 -177 83 -38 18 -106 50 -150 70 -44 21 -117 55 -161 76 -91 44
-116 47 -159 21z"/>
</g>
</svg>
